<?xml version="1.0" standalone="no"?>
<!DOCTYPE svg PUBLIC "-//W3C//DTD SVG 20010904//EN"
 "http://www.w3.org/TR/2001/REC-SVG-20010904/DTD/svg10.dtd">
<svg version="1.0" xmlns="http://www.w3.org/2000/svg"
 width="1143.000000pt" height="1143.000000pt" viewBox="0 0 1143.000000 1143.000000"
 preserveAspectRatio="xMidYMid meet">
<metadata>
Created by potrace 1.11, written by Peter Selinger 2001-2013
</metadata>
<g transform="translate(0.000000,1143.000000) scale(0.100000,-0.100000)"
fill="#000000" stroke="none">
<path d="M5428 11425 c-2 -1 -55 -6 -118 -9 -63 -4 -124 -9 -135 -11 -11 -2
-49 -7 -85 -10 -76 -8 -108 -11 -170 -20 -25 -4 -61 -9 -80 -11 -19 -3 -42 -7
-50 -9 -8 -3 -35 -7 -60 -10 -25 -3 -88 -15 -140 -26 -52 -11 -106 -22 -120
-25 -14 -3 -86 -20 -161 -39 -719 -181 -1390 -499 -1989 -943 -63 -47 -120
-90 -127 -96 -6 -6 -26 -22 -44 -36 -241 -182 -591 -527 -853 -840 -334 -402
-665 -955 -863 -1445 -24 -60 -48 -119 -53 -130 -5 -11 -23 -60 -40 -110 -17
-49 -35 -100 -40 -112 -5 -13 -21 -62 -35 -110 -15 -49 -37 -125 -51 -171 -23
-78 -67 -257 -78 -312 -2 -14 -9 -45 -15 -70 -15 -66 -58 -324 -66 -395 -4
-33 -9 -68 -10 -77 -2 -9 -6 -48 -10 -85 -3 -37 -8 -81 -10 -98 -24 -183 -24
-822 0 -1000 2 -16 7 -61 10 -100 3 -38 7 -81 9 -95 3 -14 7 -47 11 -75 3 -27
11 -79 16 -115 6 -36 13 -78 16 -95 49 -322 208 -885 319 -1133 13 -29 24 -55
24 -58 0 -25 199 -442 281 -591 381 -688 945 -1339 1554 -1794 44 -33 87 -66
95 -72 8 -7 83 -58 165 -113 641 -431 1357 -728 2095 -869 58 -11 138 -25 175
-30 22 -4 47 -8 55 -10 8 -2 42 -7 75 -11 33 -3 68 -8 77 -9 9 -2 48 -7 85
-10 37 -4 79 -8 92 -10 118 -19 696 -27 906 -12 233 16 469 44 640 77 28 5 66
12 85 15 19 3 42 8 50 10 8 2 26 6 40 9 140 26 421 103 620 169 191 63 366
131 545 212 56 25 350 172 390 195 22 12 60 34 85 48 834 470 1573 1194 2073
2028 37 62 67 115 67 120 0 4 6 15 14 23 41 46 243 471 336 706 113 286 246
738 285 975 3 19 8 42 10 50 2 8 6 31 9 50 3 19 8 46 11 59 5 25 21 142 30
221 3 25 7 52 10 60 2 8 7 51 10 95 3 44 8 96 10 115 25 234 20 777 -10 1030
-35 305 -67 500 -120 730 -59 260 -159 572 -277 865 -83 206 -287 619 -349
707 -11 14 -19 29 -19 32 0 7 -44 77 -155 246 -316 483 -770 978 -1211 1321
-38 30 -71 56 -74 60 -6 7 -167 124 -269 193 -92 64 -294 190 -376 236 -143
78 -295 160 -299 160 -2 0 -55 24 -118 54 -62 30 -142 66 -178 81 -36 14 -81
33 -100 41 -19 9 -44 19 -55 24 -203 86 -608 205 -898 265 -228 47 -257 52
-357 65 -47 6 -101 13 -120 16 -19 3 -48 7 -65 9 -16 2 -70 7 -120 11 -49 3
-101 8 -115 11 -29 4 -687 13 -692 8z"/>
</g>
</svg>
